<svg xmlns="http://www.w3.org/2000/svg" viewBox="0 0 430.81 430.81"><defs><style>.cls-1{fill:#a4ff15;}.cls-2{fill:#333;}</style></defs><title>Easy</title><g id="Layer_2" data-name="Layer 2"><g id="Layer_2-2" data-name="Layer 2"><circle class="cls-1" cx="215.4" cy="215.4" r="215.4"/><path class="cls-2" d="M215.4,410.81C107.66,410.81,20,323.15,20,215.4S107.66,20,215.4,20s195.41,87.66,195.41,195.4S323.15,410.81,215.4,410.81ZM215.4,34C115.38,34,34,115.38,34,215.4s81.38,181.41,181.4,181.41S396.81,315.43,396.81,215.4,315.43,34,215.4,34Z"/><polygon class="cls-2" points="127.01 189.67 146.26 194.02 138 176.09 148.09 159.12 128.49 161.43 115.46 146.59 111.61 165.95 93.47 173.75 110.69 183.41 112.5 203.07 127.01 189.67"/><path class="cls-2" d="M177.79,141.59l6.34,7.22,1.74,2,2.61-.31,9.54-1.13-4.91,8.26-1.34,2.26,1.1,2.39,4,8.73-9.38-2.12-2.56-.58L183,170.08,176,176.6l-.88-9.57-.25-2.62-2.29-1.28-8.39-4.7,8.84-3.8,2.41-1,.51-2.58,1.88-9.42Zm-2.92-10.92L171,150l-18.14,7.8,17.23,9.65,1.81,19.66,14.5-13.4,19.26,4.35-8.26-17.93,10.09-17-19.61,2.31-13-14.84Z"/><path class="cls-2" d="M237.2,125.67l6.34,7.22,1.73,2,2.61-.31,9.55-1.13-4.91,8.27L251.17,144l1.1,2.38,4,8.73L246.92,153l-2.57-.58-1.93,1.78-7.06,6.52-.88-9.57-.24-2.62L232,147.21l-8.39-4.7,8.83-3.8,2.42-1,.51-2.57,1.88-9.43Zm-2.93-10.91-3.85,19.36-18.14,7.8,17.22,9.65,1.81,19.66,14.51-13.4,19.25,4.35-8.26-17.93,10.09-17-19.6,2.32-13-14.84Z"/><path class="cls-2" d="M172.79,304.58,133.4,315.13l-26.79-100L146,204.59l4.3,16.07-23.13,6.2,6.38,23.8L155,244.91l4.32,16.14-21.45,5.75,7.42,27.7,23.13-6.2Z"/><path class="cls-2" d="M228.1,289.76l-11.78-23.89L193.55,272l1.74,26.58L179,302.91l-5.26-106.2,22-5.91,48.6,94.59ZM208.86,250.2l-10.9-22q-1-2-4.73-10.13t-4.81-10.92q.79,6.09,1.5,13.49t2.44,34Z"/><path class="cls-2" d="M285.77,244.76q3.76,14-.43,23.14T269.5,280.13q-11.42,3.06-20.8.08l-4.93-18.4q11.76,4.69,20,2.5,4.66-1.24,6.23-4.82c1.05-2.39,1.13-5.26.22-8.64a16.47,16.47,0,0,0-5.25-8.38,46.11,46.11,0,0,0-11.73-6.71,45,45,0,0,1-10.8-6.24,33,33,0,0,1-6.93-7.93,41,41,0,0,1-4.74-11.33q-3.43-12.87.79-22.06t14.75-12a34.58,34.58,0,0,1,21,1.26l-1.38,16.35A52.1,52.1,0,0,0,259,192a16,16,0,0,0-7.13.3,7.24,7.24,0,0,0-5.27,4.6c-.88,2.36-.87,5.25,0,8.67a16,16,0,0,0,4.9,8.14q3.56,3.09,11.17,6.18,10.31,4.27,15.52,10.21A35.94,35.94,0,0,1,285.77,244.76Z"/><path class="cls-2" d="M310,203,311,160.37l17-4.57-4.68,65.47,10.74,40.08-16,4.29-10.54-39.32-36.93-55.13,17.15-4.59Z"/></g></g></svg>