<svg xmlns="http://www.w3.org/2000/svg" viewBox="0 0 430.81 430.81"><defs><style>.cls-1{fill:#f97911;}.cls-2{fill:#333;}</style></defs><title>Hard</title><g id="Layer_2" data-name="Layer 2"><g id="Layer_2-2" data-name="Layer 2"><circle class="cls-1" cx="215.4" cy="215.4" r="215.4"/><path class="cls-2" d="M215.4,410.81C107.66,410.81,20,323.15,20,215.4S107.66,20,215.4,20s195.41,87.66,195.41,195.4S323.15,410.81,215.4,410.81ZM215.4,34C115.38,34,34,115.38,34,215.4s81.38,181.41,181.4,181.41S396.81,315.43,396.81,215.4,315.43,34,215.4,34Z"/><polygon class="cls-2" points="115.09 196.5 134.35 200.85 126.09 182.92 136.18 165.95 116.57 168.26 103.55 153.42 99.69 172.78 81.55 180.58 98.77 190.24 100.59 209.9 115.09 196.5"/><polygon class="cls-2" points="174.49 180.58 193.75 184.93 185.49 167 195.58 150.03 175.97 152.34 162.95 137.5 159.09 156.87 140.95 164.67 158.18 174.32 159.99 193.98 174.49 180.58"/><polygon class="cls-2" points="233.9 164.66 253.16 169.02 244.9 151.08 254.98 134.11 235.38 136.43 222.35 121.59 218.5 140.95 200.36 148.75 217.58 158.4 219.39 178.06 233.9 164.66"/><path class="cls-2" d="M170.12,297.3l-15.24,4.08-11-41.1-20.12,5.39,11,41.1-15.24,4.09L94.41,217.11,109.65,213l10,37.25,20.12-5.39-10-37.25L145,203.56Z"/><path class="cls-2" d="M224.5,282.73l-11.05-22.4-21.34,5.72L193.74,291l-15.24,4.08-4.94-99.56L194.24,190l45.56,88.68Zm-18-37.09L196.24,225q-.92-1.87-4.43-9.49t-4.52-10.24q.75,5.72,1.41,12.65T191,249.79Z"/><path class="cls-2" d="M253.64,235.82l9.77,36.48-15.24,4.09-25.12-93.75L243,177.3q12.66-3.39,20.53,1.85t11.64,19.36q4.75,17.76-3.83,27.62L298.1,263l-16.31,4.37-22.72-33Zm-4-15,3.92-1.05q5.37-1.44,6.79-5.56t-.43-11q-1.93-7.18-5.24-9.56t-8.52-1l-3.81,1Z"/><path class="cls-2" d="M346,199q6.22,23.22,1.25,37.71t-20.5,18.65l-20.06,5.37L281.58,167l21.9-5.87q14.29-3.83,25.49,6.13T346,199Zm-15.49,4.7q-8.42-31.41-23.55-27.36L300.85,178l17,63.41,4.93-1.32q8.34-2.23,10.18-11.29T330.51,203.67Z"/></g></g></svg>