<svg xmlns="http://www.w3.org/2000/svg" viewBox="0 0 430.81 430.81"><defs><style>.cls-1{fill:#f1c40f;}.cls-2{fill:#333;}</style></defs><title>Medium</title><g id="Layer_2" data-name="Layer 2"><g id="Layer_2-2" data-name="Layer 2"><circle class="cls-1" cx="215.4" cy="215.4" r="215.4"/><path class="cls-2" d="M215.4,410.81C107.66,410.81,20,323.15,20,215.4S107.66,20,215.4,20s195.41,87.66,195.41,195.4S323.15,410.81,215.4,410.81ZM215.4,34C115.38,34,34,115.38,34,215.4s81.38,181.41,181.4,181.41S396.81,315.43,396.81,215.4,315.43,34,215.4,34Z"/><polygon class="cls-2" points="114.96 216.25 134.22 220.6 125.95 202.67 136.04 185.7 116.44 188.01 103.41 173.17 99.56 192.54 81.42 200.34 98.64 209.99 100.45 229.65 114.96 216.25"/><polygon class="cls-2" points="174.36 200.33 193.62 204.69 185.36 186.75 195.45 169.78 175.84 172.09 162.82 157.25 158.96 176.62 140.82 184.42 158.05 194.07 159.86 213.73 174.36 200.33"/><path class="cls-2" d="M225.15,152.25l6.34,7.23,1.73,2,2.61-.31,9.55-1.12-4.91,8.26-1.35,2.26,1.1,2.39,4,8.73-9.37-2.12L232.3,179l-1.93,1.78-7.06,6.53-.88-9.58-.24-2.61-2.29-1.29-8.39-4.7,8.83-3.8,2.42-1,.51-2.58,1.88-9.43Zm-2.93-10.91-3.85,19.36-18.14,7.8,17.22,9.65,1.81,19.66,14.51-13.39L253,188.77l-8.26-17.94,10.09-17-19.6,2.32-13-14.84Z"/><path class="cls-2" d="M125.1,293.28l-23.63-48.35-.39.11a98.6,98.6,0,0,1,3.58,10.63l10.77,40.2-9,2.42L90.35,238.38l15-4,21.57,44.68.28-.07-3.73-49.46,15.18-4.07,16,59.91-9.23,2.47-10.89-40.61q-1.35-5-2.26-10.46l-.29.08,3.73,53.59Z"/><path class="cls-2" d="M188.24,276.36l-23.59,6.32-16.06-59.9,23.6-6.33,2.58,9.63-13.86,3.72,3.82,14.26,12.86-3.45,2.59,9.67-12.86,3.45,4.45,16.59,13.86-3.71Z"/><path class="cls-2" d="M221.72,234.67q4,14.84.8,24.1t-13.1,11.92l-12.82,3.43-16-59.91,14-3.75a16.68,16.68,0,0,1,16.29,3.92Q218,220.74,221.72,234.67Zm-9.9,3q-5.38-20.09-15-17.49l-3.9,1,10.86,40.53,3.15-.84q5.34-1.44,6.51-7.22T211.82,237.68Z"/><path class="cls-2" d="M240,262.49,224,202.58l9.16-2.46L249.19,260Z"/><path class="cls-2" d="M277.12,188.34l10.39,38.76q2.87,10.69.15,17.46T277,253.47q-7.81,2.09-13.39-2.41t-8.51-15.44L244.72,197l9.66-2.59L265,233.85q3.06,11.43,9.68,9.66a5.45,5.45,0,0,0,4-4.19q.9-3.36-.54-8.73l-10.63-39.66Z"/><path class="cls-2" d="M321.62,240.62,298,192.27l-.4.11A98,98,0,0,1,301.18,203L312,243.21l-9,2.42-16.05-59.91,15-4,21.56,44.69.29-.08L320,176.86l15.19-4.07L351.2,232.7,342,235.17l-10.88-40.61q-1.35-5-2.27-10.45l-.28.07,3.73,53.59Z"/></g></g></svg>