<svg xmlns="http://www.w3.org/2000/svg" viewBox="0 0 301.97 98.86"><defs><style>.cls-1{fill:#cf6130;}.cls-2{fill:#1d1d1b;}.cls-3{fill:#fff;}</style></defs><title>Asset 8</title><g id="Layer_2" data-name="Layer 2"><g id="Layer_1-2" data-name="Layer 1"><path class="cls-1" d="M299.75,41.43l-42.16-3.58,1.23-13-1.12-.28c-36.77-9.38-72.45-14.13-106-14.13h-1.34c-33.6,0-69.27,4.75-106,14.13l-1.13.28,1.24,13L2.23,41.43,23.82,68.59,6.94,97.53l63.22-5.37L69,78.84l1.15-.1c29.39-2.45,55.5-3.65,79.8-3.65h2c24.31,0,50.41,1.2,79.81,3.65l1.14.1-1.13,13.32L295,97.53,278.16,68.59Z"/><path class="cls-2" d="M116.19,12.69l.77-.83-12-10.32Z"/><path class="cls-2" d="M119.35,12.5l.78-.82c-.28-.25-7.72-6.6-7.72-6.6Z"/><path class="cls-2" d="M122.35,12l.74-.86L110.06.61Z"/><path class="cls-2" d="M129.43,10.85l.75-.86L124,5.36Z"/><path class="cls-2" d="M106,13.38l.84-.76c-.18-.18-5.15-4.85-5.15-4.85Z"/><path class="cls-2" d="M169.31,10.9l.77.83,8.43-8.54S169.64,10.61,169.31,10.9Z"/><path class="cls-2" d="M179.49,11l.76.84L192.46,0S180,10.54,179.49,11Z"/><path class="cls-2" d="M182.51,11.16l.76.84,5.65-5.92Z"/><path class="cls-2" d="M185.85,11.73l.79.82L195,3.76Z"/><path class="cls-2" d="M193.56,12.46l.79.81,5-5.67S193.77,12.27,193.56,12.46Z"/><path class="cls-2" d="M168.9,74l-.82.77c.39.4,10.69,10.59,10.69,10.59S169.27,74.45,168.9,74Z"/><path class="cls-2" d="M178.93,74.45l-.76.84,16.41,14.36S179.52,75,178.93,74.45Z"/><path class="cls-2" d="M182.36,75l-.78.83,7.33,6Z"/><path class="cls-2" d="M195.26,76.7l.46-.5h-.05s.1,0,.11,0,0-.17-.08-.08l-.28.36,8.16,6.62-7.41-7.46.09.11a.65.65,0,0,0-.77-.24.75.75,0,0,0-.31.24.63.63,0,0,0-.12.26.68.68,0,0,0,0,.15.71.71,0,0,0,.05.26c.09.18.17.23.15.21Z"/><path class="cls-2" d="M105.06,77.14l-.76-.84c-.24.23-6.34,6.44-6.34,6.44Z"/><path class="cls-2" d="M116.05,75.87l-.84-.77-8.6,10.24Z"/><path class="cls-2" d="M119.65,75.86l-.77-.84-7,7.21S119.37,76.1,119.65,75.86Z"/><path class="cls-2" d="M132.55,75.51l-.78-.82c-.49.48-13.15,13.36-13.15,13.36Z"/><path class="cls-2" d="M302,40.47l-43.13-3.66q.6-6.43,1.22-12.82L258,23.47C222.8,14.5,186.7,9.24,151,9.3S79.17,14.5,44,23.47L41.92,24q.6,6.39,1.22,12.82L0,40.47,22.43,68.69,4.83,98.86,71.4,93.2,70.27,79.89c26.84-2.25,53.89-3.69,80.72-3.65s53.88,1.4,80.71,3.65L230.57,93.2l66.57,5.66-17.6-30.17ZM27.5,68.33,8.16,44l35.37-3c.06.54.11,1.09.16,1.64C41,43.1,32,44.71,32,44.71l11.91-.16.09.92L38.78,47l5.34.21c.31,3.2.61,6.4.91,9.62L41.92,58l3.27.47c.07.71.13,1.42.2,2.13l-6.61,1.33,6.78.44.18,2L34.14,66.3l11.77-.17c.16,1.72.33,3.44.49,5.16l-5.8,1.22,5.93.16.24,2.61L33.44,77.35,46.93,77c.16,1.66.32,3.3.47,5l1.26.59L39.91,83.7l11.82.3,3.2,1.49L33.44,87.73,58.11,87l5.68,2.66L12.53,94Zm23.68,9q-2.37-25.4-4.71-50.18c34.4-8.22,69.65-13,104.52-13s70.11,4.76,104.52,13q-2.34,24.78-4.71,50.18c-33-3.56-66.61-5.92-99.81-5.87S84.22,73.73,51.18,77.29ZM243.82,87l24,.73-20.9-2.18,1-.48,12.7-.32-9.41-1.23,3.12-1.45,12.18.3-11.84-1.84L255,77l12.78.32-12.63-2c.18-1.93.37-3.87.55-5.8l4.92-.13-4.81-1,.21-2.31c4,.07,11.06.16,11.06.16l-10.9-1.82c.07-.72.13-1.44.2-2.16l6.07-.39-5.92-1.19c.07-.7.13-1.41.2-2.11l9.23.26-9.06-2c.3-3.23.61-6.45.91-9.66L265,47l-7-1.44.09-1,11.21.15-11-2c.06-.59.11-1.18.17-1.76l35.37,3L274.47,68.33l15,25.66-51.25-4.35Z"/><path class="cls-3" d="M55.77,49.39A22,22,0,0,1,56,43.86,11.75,11.75,0,0,1,57.41,40a7.67,7.67,0,0,1,2.36-2.5,9.66,9.66,0,0,1,3.14-1.33,12.18,12.18,0,0,1,3.59-.27c.1,1.74.21,3.48.31,5.21a6,6,0,0,0-1.47-.13,9.12,9.12,0,0,0-1.45.2,5.91,5.91,0,0,0-1.4.47,2.81,2.81,0,0,0-1.11,1,5.55,5.55,0,0,0-.67,2,13.17,13.17,0,0,0-.1,3.2l.3,4.72a12.78,12.78,0,0,0,.51,3.09,4.37,4.37,0,0,0,.94,1.66,2.06,2.06,0,0,0,1.22.64,5.5,5.5,0,0,0,1.4,0,10.76,10.76,0,0,0,1.62-.34,7.93,7.93,0,0,0,1.29-.49c.1,1.71.2,3.42.31,5.13a10.26,10.26,0,0,1-1.77.6,13.29,13.29,0,0,1-1.78.33,8.45,8.45,0,0,1-3.2-.21,5.74,5.74,0,0,1-2.63-1.59A9.15,9.15,0,0,1,56.94,58,20.34,20.34,0,0,1,56,52.71C55.92,51.61,55.84,50.5,55.77,49.39Z"/><path class="cls-3" d="M76.69,62.06a6.32,6.32,0,0,1-3-.37,5.66,5.66,0,0,1-2.39-1.91,11.3,11.3,0,0,1-1.68-3.67,27.7,27.7,0,0,1-.85-5.67c-.06-1.09-.13-2.18-.19-3.27a28.45,28.45,0,0,1,.18-5.84A13.66,13.66,0,0,1,70,37.19a7,7,0,0,1,5.09-3.89,6.06,6.06,0,0,1,3,.11,4.82,4.82,0,0,1,2.4,1.81A11.24,11.24,0,0,1,82.21,39,29.7,29.7,0,0,1,83,45c.06,1.14.12,2.28.17,3.43A31.51,31.51,0,0,1,83,54.47a13.08,13.08,0,0,1-1.22,4.16,6.17,6.17,0,0,1-2.14,2.45A6.58,6.58,0,0,1,76.69,62.06ZM75.43,38.51a1.92,1.92,0,0,0-1.22.69,3.72,3.72,0,0,0-.64,1.53,13,13,0,0,0-.23,2.39q0,1.41.09,3.3l.18,3.2c.07,1.26.16,2.35.28,3.27a11.6,11.6,0,0,0,.49,2.28,3,3,0,0,0,.78,1.31,1.47,1.47,0,0,0,1.21.33,1.81,1.81,0,0,0,1.21-.62,3.54,3.54,0,0,0,.64-1.5,11.62,11.62,0,0,0,.21-2.4c0-.95,0-2.07-.09-3.35-.06-1.08-.12-2.17-.17-3.25a26.41,26.41,0,0,0-.75-5.64C77.06,38.85,76.39,38.33,75.43,38.51Z"/><path class="cls-3" d="M86.38,60.56Q85.69,46.33,85,32.08c2.11-.36,4.24-.7,6.36-1a6.65,6.65,0,0,1,3.07.2,4.93,4.93,0,0,1,2.44,1.89,11.6,11.6,0,0,1,1.69,3.91,29.34,29.34,0,0,1,.78,6.2l.12,3a31.05,31.05,0,0,1-.31,6.31,13.4,13.4,0,0,1-1.37,4.22,6.11,6.11,0,0,1-2.22,2.4,6.88,6.88,0,0,1-2.93.89C90.56,60.2,88.47,60.38,86.38,60.56Zm4.29-6,1.16-.11a3.25,3.25,0,0,0,1.29-.38A2.3,2.3,0,0,0,94,52.94a7.34,7.34,0,0,0,.52-2.17,25.32,25.32,0,0,0,.06-3.61c-.05-1.25-.11-2.51-.16-3.76a25.32,25.32,0,0,0-.35-3.54,6.49,6.49,0,0,0-.68-2.06,1.91,1.91,0,0,0-1-.92,2.76,2.76,0,0,0-1.33-.1L89.87,37Q90.28,45.76,90.67,54.55Z"/><path class="cls-3" d="M101.46,29.65q5.58-.7,11.18-1.26c0,1.94.11,3.87.16,5.81q-3.27.3-6.54.64.09,3,.2,6.06c2-.19,4-.36,5.92-.52.06,1.93.11,3.87.17,5.8-2,.14-3.93.3-5.9.46.08,2.21.15,4.43.23,6.64,2.23-.16,4.46-.3,6.69-.44.06,1.94.11,3.88.17,5.82q-5.59.29-11.19.65Q102,44.49,101.46,29.65Z"/><path class="cls-3" d="M118,27.9c1.57-.13,3.15-.26,4.73-.37q.93,9.57,1.84,19.17.92-9.6,1.84-19.24l3.82-.22q1.26,9.61,2.5,19.26.54-9.81,1.11-19.62c1.54-.07,3.09-.13,4.63-.18q-1.62,15.6-3.17,31.17l-4.47.11q-1.12-8.92-2.29-17.81-.95,9-1.87,17.94l-4.55.17Q120.08,43,118,27.9Z"/><path class="cls-3" d="M147.24,58.35a5.85,5.85,0,0,1-3-.74,6.37,6.37,0,0,1-2.3-2.45,14.93,14.93,0,0,1-1.49-4.41,36.25,36.25,0,0,1-.57-6.64c0-1.26,0-2.52,0-3.78a35.67,35.67,0,0,1,.48-6.67,14.83,14.83,0,0,1,1.46-4.47,6.5,6.5,0,0,1,2.31-2.53,6.31,6.31,0,0,1,6.06-.07,6.27,6.27,0,0,1,2.31,2.48A15,15,0,0,1,154,33.52a36.36,36.36,0,0,1,.5,6.67c0,1.27,0,2.53,0,3.79a37.17,37.17,0,0,1-.51,6.67,14.65,14.65,0,0,1-1.44,4.44,6.24,6.24,0,0,1-2.26,2.48A5.84,5.84,0,0,1,147.24,58.35Zm-.06-26.61a1.58,1.58,0,0,0-1.25.55,3.73,3.73,0,0,0-.73,1.6,15.38,15.38,0,0,0-.34,2.65c-.07,1.06-.09,2.31-.09,3.74,0,1.22,0,2.43,0,3.65,0,1.43.05,2.68.12,3.74a15.8,15.8,0,0,0,.37,2.63,4.07,4.07,0,0,0,.72,1.59,1.46,1.46,0,0,0,1.19.52,1.55,1.55,0,0,0,1.24-.54,3.79,3.79,0,0,0,.72-1.6,15.12,15.12,0,0,0,.34-2.64c0-1.06.08-2.31.08-3.74,0-1.22,0-2.44,0-3.65a33.15,33.15,0,0,0-.46-6.41C148.8,32.43,148.16,31.73,147.18,31.74Z"/><path class="cls-3" d="M157.13,26.51c2.33,0,4.67.09,7,.16,3.9.13,5.81,3.31,5.72,9.47a17.36,17.36,0,0,1-.53,4.33,6.27,6.27,0,0,1-1.6,2.91,5,5,0,0,1,1.14,2.41,14.3,14.3,0,0,1,.3,3.31c0,2.93-.07,5.86-.11,8.79l-4.47-.09c0-2.77,0-5.54.08-8.3a9.64,9.64,0,0,0-.22-2.25,1.13,1.13,0,0,0-1.12-1l-1.77,0c0,3.84-.05,7.69-.08,11.53l-4.47,0Q157.06,42.12,157.13,26.51Zm6.38,14.19c.46,0,.83-.28,1.1-.86a8.31,8.31,0,0,0,.43-3.11,8.7,8.7,0,0,0-.38-3.28,1.31,1.31,0,0,0-1.16-.92l-1.84-.05c0,2.73,0,5.45-.07,8.18Z"/><path class="cls-3" d="M176.83,27.27l-.21,11.55q2.52-5.66,5.07-11.22c1.69.13,3.39.27,5.08.42q-3.3,6.9-6.55,14,3,8.31,6,16.52c-1.72-.08-3.43-.16-5.15-.22q-2.26-6.33-4.57-12.7-.12,6.26-.23,12.52L171.9,58,172.38,27C173.86,27.09,175.35,27.17,176.83,27.27Z"/><path class="cls-3" d="M194.39,50.29a3.47,3.47,0,0,0-.09-1.07,2.69,2.69,0,0,0-.4-.84,4.42,4.42,0,0,0-.77-.81c-.33-.26-.73-.58-1.22-1l-1.56-1.2a7.38,7.38,0,0,1-1.3-1.21,7.22,7.22,0,0,1-1-1.74,10.65,10.65,0,0,1-.67-2.49,18.61,18.61,0,0,1-.18-3.51,13,13,0,0,1,.59-3.79,6.86,6.86,0,0,1,1.47-2.61,5.22,5.22,0,0,1,2.22-1.43,6.82,6.82,0,0,1,2.85-.25,16.5,16.5,0,0,1,2.44.45c.76.21,1.49.45,2.17.71-.06,1.93-.13,3.87-.2,5.81-.66-.25-1.31-.47-1.93-.65a11.45,11.45,0,0,0-2.15-.4,3.46,3.46,0,0,0-2.06.32,2.13,2.13,0,0,0-.83,1.95,3.64,3.64,0,0,0,.17,1.33,3.15,3.15,0,0,0,.59,1,7.66,7.66,0,0,0,.91.88c.34.28.73.6,1.16.93l1.67,1.37a7.84,7.84,0,0,1,2.31,3.11,11.74,11.74,0,0,1,.7,5c-.23,6.24-2.82,9.2-7.79,8.94a13.81,13.81,0,0,1-2.7-.36q-1.12-.28-2.19-.66l.15-6c.34.11.67.22,1,.35a8.13,8.13,0,0,0,1,.31c.34.08.7.15,1.08.22a11.5,11.5,0,0,0,1.32.15,3.4,3.4,0,0,0,2.48-.57A3,3,0,0,0,194.39,50.29Z"/><path class="cls-3" d="M202.45,29.72c1.61.2,3.23.42,4.83.64q-.21,5.46-.44,10.9c1.4.17,2.8.33,4.19.51L211.51,31c1.61.24,3.23.5,4.84.76q-.67,14.33-1.34,28.65-2.38-.21-4.77-.39.27-6,.53-12l-4.18-.45q-.26,6.09-.5,12.18l-4.74-.33Q201.91,44.53,202.45,29.72Z"/><path class="cls-3" d="M224.73,61.87a6.65,6.65,0,0,1-2.92-1,6.39,6.39,0,0,1-2.16-2.46,13.07,13.07,0,0,1-1.25-4.19,31.65,31.65,0,0,1-.22-6.13c.06-1.15.11-2.3.17-3.45a29.24,29.24,0,0,1,.82-6,11.32,11.32,0,0,1,1.69-3.8,4.93,4.93,0,0,1,2.41-1.83,6,6,0,0,1,3-.14,7.41,7.41,0,0,1,3,1.26,7.29,7.29,0,0,1,2.16,2.63A13.67,13.67,0,0,1,232.63,41a29,29,0,0,1,.17,5.89c-.06,1.09-.13,2.19-.19,3.29a28.27,28.27,0,0,1-.83,5.72,11.18,11.18,0,0,1-1.65,3.7,5.52,5.52,0,0,1-2.38,1.94A6.35,6.35,0,0,1,224.73,61.87ZM226,38.16a1.51,1.51,0,0,0-1.27.27,2.84,2.84,0,0,0-.8,1.3,12.61,12.61,0,0,0-.48,2.32c-.11.94-.2,2.05-.27,3.34-.06,1.09-.11,2.19-.17,3.28C223,50,223,51.08,223,52a14,14,0,0,0,.23,2.41,3.66,3.66,0,0,0,.63,1.51,1.74,1.74,0,0,0,1.17.62,1.61,1.61,0,0,0,1.25-.34,3,3,0,0,0,.8-1.32,11.83,11.83,0,0,0,.47-2.3c.1-.93.19-2,.26-3.29L228,46.1a27,27,0,0,0-.13-5.74C227.59,39.07,227,38.33,226,38.16Z"/><path class="cls-3" d="M236.08,35.48c2.21.48,4.42,1,6.62,1.49a5.85,5.85,0,0,1,4.15,3.17,13,13,0,0,1,1,6.62,11.31,11.31,0,0,1-1.8,6,4.13,4.13,0,0,1-4.3,1.65l-2.11-.33c-.19,2.92-.37,5.85-.55,8.77l-4.56-.53Q235.27,48.9,236.08,35.48Zm5.06,13.84a1.2,1.2,0,0,0,1.32-.59,6.34,6.34,0,0,0,.61-2.81,8,8,0,0,0-.21-3.07,1.59,1.59,0,0,0-1.15-1.09l-1.34-.28q-.23,3.81-.47,7.62Z"/></g></g></svg>