<svg xmlns="http://www.w3.org/2000/svg" viewBox="0 0 301.97 231.01"><defs><style>.cls-1{fill:#9eabad;}.cls-2{fill:#1d1d1b;}.cls-3{fill:#cbdbde;}.cls-4{fill:#fff;}.cls-5{fill:#cf6130;}</style></defs><title>Asset 8</title><g id="Layer_2" data-name="Layer 2"><g id="Layer_1-2" data-name="Layer 1"><circle class="cls-1" cx="148.21" cy="171.34" r="11.76" transform="translate(-51.33 64.07) rotate(-20.88)"/><path class="cls-2" d="M139.22,168.41a9.73,9.73,0,0,0,.25,7.75l1-.93A11.33,11.33,0,0,1,139.22,168.41Z"/><path class="cls-2" d="M145.11,162.4a12.08,12.08,0,0,1,6.12.74,9,9,0,0,0-5.71.48,10.48,10.48,0,0,1,5.27.72,7.47,7.47,0,0,0-4.85.49,8.91,8.91,0,0,1,4.57.8l3-2.86A9.41,9.41,0,0,0,145.11,162.4Z"/><path class="cls-2" d="M153.91,169.42a8.44,8.44,0,0,1,.32,4.68,6.32,6.32,0,0,0,.93-4.92,9.65,9.65,0,0,1,.23,5.47,7.61,7.61,0,0,0,.78-6.51,11,11,0,0,1,.39,7.06,9.21,9.21,0,0,0,.41-8.7Z"/><path class="cls-2" d="M140.45,168.79a8.11,8.11,0,0,0,.05,6.38l.93-.88A10,10,0,0,1,140.45,168.79Z"/><path class="cls-2" d="M141.67,169.18a6.75,6.75,0,0,0-.19,5.06l.92-.88A8.81,8.81,0,0,1,141.67,169.18Z"/><path class="cls-2" d="M146.36,166.07a7.92,7.92,0,0,1,3.16.51l1-.92A5,5,0,0,0,146.36,166.07Z"/><path class="cls-2" d="M153.06,173.55a5.13,5.13,0,0,0,.78-4.07l-1,.93A8.62,8.62,0,0,1,153.06,173.55Z"/><path class="cls-2" d="M142.28,172.32a4.87,4.87,0,0,0,.17,1l1-.93a7.07,7.07,0,0,1-.5-2.81C142.51,169.5,142.26,172,142.28,172.32Z"/><path class="cls-2" d="M143.54,172.22a10.47,10.47,0,0,0,.88-.78,5.33,5.33,0,0,1-.28-1.47C143.77,169.88,143.53,172,143.54,172.22Z"/><path class="cls-2" d="M143,179.86a9.25,9.25,0,0,0,10.57-1,11.44,11.44,0,0,1-6.91.87,7.9,7.9,0,0,0,6.16-1.92,10.13,10.13,0,0,1-5.28.78,7.71,7.71,0,0,0,4.54-1.83,8.6,8.6,0,0,1-4.91.49,5.38,5.38,0,0,0,4.16-1.54,6.87,6.87,0,0,1-3.41.29,4,4,0,0,0,2.67-1.33,5.72,5.72,0,0,1-2.27.15Z"/><path class="cls-2" d="M151.9,173a3.85,3.85,0,0,0,.81-2.45l-1,.91A7,7,0,0,1,151.9,173Z"/><path class="cls-2" d="M146.77,167.28a5.83,5.83,0,0,1,1.68.32l1-.93A3.66,3.66,0,0,0,146.77,167.28Z"/><path class="cls-2" d="M156.71,165.93a10.22,10.22,0,0,0-2.69-2.82l-14.31,13.64a10.23,10.23,0,0,0,1.2,1.55,9.92,9.92,0,0,0,1.49,1.27Z"/><path class="cls-2" d="M148.21,158.5a12.84,12.84,0,1,0,12.84,12.84A12.85,12.85,0,0,0,148.21,158.5Zm0,23.31a10.46,10.46,0,0,1-5.59-1.63,10.57,10.57,0,0,1-3.51-3.68,10.45,10.45,0,0,1,14.68-14,10.49,10.49,0,0,1,3.51,3.68,10.34,10.34,0,0,1,1.37,5.15A10.48,10.48,0,0,1,148.21,181.81Z"/><path class="cls-3" d="M136.53,47.82v9.3l.9.9h4.23V81.56l1,1.18v2.37h-.42l-.13.12.06,0,.48,0v1.6l-.39,0-.16.14.1.07h.44v1.6h-.42l-.13.11.1.07h.44v1.59h-.42l-.13.11.07,0,.47,0v1.6l-.39,0-.16.14.1.07h.44V94h-.42l-.13.11.06.05.48-.05v1.67h-.42l-.13.11.1.07h.44v1.52l-.39,0-.16.13.06,0,.48,0v1.67h-.42l-.13.11.07,0,.47-.06V101l-.39,0-.16.14.1.07h.44v1.52l-.39,0-.16.14,1.67,1.25h-8.59v1.67h2.58L136,107.45v8.62l.94.82h4.79l.48.37h.44v1.09l1.13,1.13h9.82l1.13-1.13v-1.46h5.72l.94-.82v-8.62l-1.77-1.55h2.26v-1.67h-6l-.68-.51h-.44V102.2l.39,0,.16-.14-.07,0-.47,0v-1.67h.42l.13-.11-.07,0-.47,0v-1.6l.39-.05.16-.13-.1-.08h-.44V96.87l.39,0,.16-.14-.07,0-.47.06V95h.42l.13-.12-.1-.07h-.44V93.32l.39,0,.16-.14-.1-.07h-.44V91.48h.42l.13-.12-.07,0-.47.05V89.7h.42l.13-.11a4.05,4.05,0,0,0-.54.09V88l.39,0,.16-.14-.07,0-.47,0V86.15h.42l.13-.11-.1-.07h-.44V84.44l.39,0,.16-.14-.1-.07h-.44V82.74l1-1.18V58H160l.9-.9v-9.3l-.9-.9H137.43Z"/><path class="cls-2" d="M135.87,47.54V57.4l1.28,1.28H141V81.8L142,83v1.47l-.93.82L142,86v.26l-.93.82.93.7V88l-.93.82.93.69v.26l-.93.83.93.69v.26l-.93.82.93.7v.25l-.93.83.93.69v.26l-.93.82.93.7v.26l-.93.82.93.69v.26l-.93.82.93.7v.26l-.93.82.93.69v.26l-.93.82.72.55h-7.26v3H136l-.67.59v9.22l1.36,1.19h4.81l.49.36v.71l1.52,1.52h10.38l1.52-1.52v-1.07h5.3l1.36-1.19v-9.22l-.67-.59h1.16v-3h-6.46l-.69-.52v-.25l.93-.83-.93-.69V101l.93-.82-.93-.7v-.26l.93-.82-.93-.69v-.26l.93-.82-.93-.7v-.26l.93-.82-.93-.69v-.26l.93-.82-.93-.7v-.26l.93-.82-.93-.69v-.26l.93-.83-.93-.69v-.26l.93-.82-.93-.7v-.25l.93-.83-.93-.69V85l.93-.82-.93-.7V83l1-1.18V58.68h3.85l1.28-1.28V47.54l-1.28-1.28H137.15Zm21.57,60.78a3.43,3.43,0,0,1-2,2.71v-2.71Zm-4.41,0v6.87h-8.68v-6.87Zm-11.05,0v6.87h-4.29v-6.87Zm14.9-3.66-20.67.86v-.86Zm-7.64-1.44v.26l-.39,0v-.25Zm-4.89.35,3.55-.26v.26Zm9.82,0h-1.71l1.53-.11Zm-1.14-.35-.59,0V103l.59,0Zm-3.79-1.78v.26l-.39,0v-.26Zm-4.89.34,3.55-.24v.25l-3.55.25Zm9.86,0-10.64.78.3-.21,10.12-.69Zm-1.18-.37-.59,0v-.26l.59,0Zm-3.79-1.77v.26l-.39,0v-.26Zm-4.89.33,3.55-.24V100l-3.55.24Zm9.86,0-10.64.77.3-.2,10.12-.7ZM153,99.67l-.59,0v-.26l.59,0Zm-3.79-1.78v.26l-.39,0v-.26Zm-4.89.34L147.9,98v.25l-3.55.25Zm9.86,0L143.57,99l.3-.21L154,98.14ZM153,97.89l-.59,0v-.26l.59,0Zm-3.79-1.77v.26l-.39,0v-.26Zm-4.89.33,3.55-.24v.26l-3.55.24Zm9.86,0-10.64.77.3-.2,10.12-.7ZM153,96.12l-.59,0V95.9l.59,0Zm-3.79-1.78v.26l-.39,0v-.26Zm-4.89.34,3.55-.25v.26l-3.55.25Zm9.86,0-10.64.78.3-.21,10.12-.7ZM153,94.34l-.59,0v-.26l.59,0Zm-3.79-1.77v.26l-.39,0v-.26Zm-4.89.33,3.55-.24v.26l-3.55.24Zm9.86,0-10.64.77.3-.2,10.12-.7ZM153,92.56l-.59,0v-.26l.59,0Zm-3.79-1.77v.26l-.39,0v-.26Zm-4.89.34,3.55-.25v.26l-3.55.25Zm9.86,0-10.64.77.3-.2L154,91ZM153,90.79l-.59,0v-.26l.59,0ZM149.24,89v.25l-.39,0V89Zm-4.89.33,3.55-.24v.26l-3.55.24Zm9.86,0-10.64.77.3-.21L154,89.26ZM153,89l-.59,0V88.8l.59,0Zm-3.79-1.77v.26l-.39,0v-.26Zm-4.89.34,3.55-.25v.26l-3.55.25Zm9.86,0-10.64.77.3-.2,10.12-.7ZM153,87.24l-.59,0V87l.59,0Zm-3.79-1.78v.26l-.39,0v-.26Zm-4.89.34,3.55-.24v.26l-3.55.24Zm9.86,0-10.64.78.3-.21L154,85.71ZM153,85.46l-.59,0v-.26l.59,0Zm1.18-1.4-10.64.77.3-.2,10.12-.7Zm-5-.32V84l-.39,0v-.23Zm-1.34,0V84l-3.55.24v-.54ZM154,58.68V80.94l-.36.43h-9.94l-.36-.43V58.68Zm3-10.06a3.69,3.69,0,0,1-1.9,3v-3Zm-4.27,0v7.7H144.6v-7.7Zm-10.55,0v7.7h-4v-7.7Z"/><polygon class="cls-4" points="160.56 115.44 161.21 107.47 161.21 115.84 160.16 116.76 154.55 116.8 154.55 118.12 153.32 119.35 147.7 119.35 153.07 118.89 154.13 117.97 154.16 116.45 159.75 116.14 160.56 115.44"/><polygon class="cls-4" points="155.99 46.69 159.75 46.69 160.74 47.69 160.74 57.13 159.75 58.12 157.23 58.12 159.47 57.66 160.16 56.84 160.1 47.94 159.29 47.19 155.99 46.69"/><rect class="cls-2" x="149.43" y="59.28" width="3.65" height="21.4"/><path class="cls-2" d="M145.4,59.28c3.09,1.43,2.27,12.74,2.5,21.4H149V59.28Z"/><path class="cls-2" d="M145.16,52.37v3.38h7.07v-6.7C151.25,51.88,147.46,53.56,145.16,52.37Z"/><path class="cls-2" d="M138.65,53.9v1.85h3.15v-6.7C141.3,51.93,140.33,53.72,138.65,53.9Z"/><path class="cls-2" d="M145,111.67v3.1h7.39v-6.15C151.37,111.22,147.4,112.76,145,111.67Z"/><path class="cls-2" d="M138.19,113.07v1.7h3.29v-6.15C141,111.26,139.94,112.9,138.19,113.07Z"/><path class="cls-3" d="M257.85,189.86c-7.66-11.1-17.17-14.65-22.93-14.16-.71,0-1.3,0-1.88.08s-1,.07-1.55.07c-3.25,0-6.73-1.47-14-8.82C202.17,151.49,186,135.17,171,120l-3.9-3.94-.71-.71.71-.72c21.46-21.79,40-40.61,43.69-44.27,9.26-9.16,14.6-10.42,19-10.42a27.77,27.77,0,0,1,2.94.17,36.45,36.45,0,0,0,4,.22c18,0,22.51-14.29,23-15.92l.08-.32c4.61-17.31,2.11-23.12.22-25A3.45,3.45,0,0,0,258.17,18l-.54-.08-.29.47s-7.83,12.69-10.44,17c-1.88,3.07-3.67,3.4-4.35,3.4h-.17c-6.41-.6-15.27-6.44-19.19-10.41a8.58,8.58,0,0,1-1.37-1.66l-.13-.31c-.17-.74-.24-3,2.92-8.17,4.62-7.54,4.62-7.54,8.84-14.51l.25-.42-.23-.43a2.06,2.06,0,0,0-.38-.48,4.29,4.29,0,0,0-3.21-1.16c-2.06,0-5.85.94-12.13,5.39-11.23,8-17.33,14.79-15.29,26.23.17.92,1.32,9.31-8.73,19.88-17.2,17.43-31.67,32.11-43.87,44.51l-.7.72-.71-.72-3.64-3.68c-18.83-19-37.47-37.9-40.65-41.21C93.78,41.52,93.44,35.85,94,30.06,96.29,8.54,80.37,3.28,78.55,2.75l-.32-.08A63.75,63.75,0,0,0,62.12,0c-4.06,0-7,.84-8.61,2.44A3.53,3.53,0,0,0,52.45,4.3l-.08.55.46.29s12.53,7.94,16.75,10.59C73,17.85,73,19.9,72.92,20.29c-.6,6.51-6.35,15.48-10.28,19.45A9.14,9.14,0,0,1,61,41.13l-.31.13a2.69,2.69,0,0,1-.64.07c-1.2,0-3.46-.53-7.42-3-7.44-4.69-7.44-4.69-14.33-9l-.41-.25-.42.23a2.06,2.06,0,0,0-.48.38c-1.16,1.17-3.08,5,4.18,15.55C48,55.07,53.94,61.15,62.87,61.15a23.3,23.3,0,0,0,4.2-.41,9.45,9.45,0,0,1,1.68-.13c3.27,0,9.93,1.17,17.94,9,15,15.24,29,29.41,41.4,41.91l3.14,3.17.71.71-10.79,11c-15.54,15.82-36.31,36.92-47,47.61a16.79,16.79,0,0,1-12,4.79h-.39A24.84,24.84,0,0,0,43.61,186a26.07,26.07,0,0,0-1,35.45,25.21,25.21,0,0,0,18.72,8.38,24.88,24.88,0,0,0,17.85-7.48,25.48,25.48,0,0,0,7.37-18.29,17.71,17.71,0,0,1,5-12.77l57-57.78.7-.72,3.28,3.31,12.32,12.44c26.54,26.78,34.55,34.86,37.73,38.7.16.2.38.44.64.73a22.28,22.28,0,0,1,6.46,17.26c-1.17,18.05,11.71,22.52,14.3,23.23l.3.08c11.67,3.19,19.42,3.23,22.44.17a3.25,3.25,0,0,0,1-1.72l.08-.55-.46-.29s-11.35-7.19-15.17-9.59c-2.62-1.64-3-3.21-3-3.81v-.15l0-.14a37.59,37.59,0,0,1,9.43-17.55,15.62,15.62,0,0,1,1.22-1.14l.21-.19.28,0a3.16,3.16,0,0,1,.41,0c1.08,0,3.11.47,6.68,2.72,6.75,4.25,6.75,4.25,13,8.12l.41.26.42-.24a1.81,1.81,0,0,0,.45-.35C262.7,203,264.46,199.43,257.85,189.86ZM74.94,208.13a2.6,2.6,0,0,1-2.4,1.65h-.16a.68.68,0,0,0-.57,1l.07.14a2.68,2.68,0,0,1-3.6,3.75l-.09-.05a.64.64,0,0,0-.84.11.69.69,0,0,0-.18.51,2.79,2.79,0,0,1-.72,2.07,2.75,2.75,0,0,1-3.83.06,2.54,2.54,0,0,1-.44-.57l-.08-.15-.08-.09a.67.67,0,0,0-.47-.19.65.65,0,0,0-.6.36,2.65,2.65,0,0,1-2.39,1.53,2.66,2.66,0,0,1-2.69-2.65v-.16a.63.63,0,0,0-.19-.47.69.69,0,0,0-.85-.1,2.59,2.59,0,0,1-3.39-.33,2.72,2.72,0,0,1-.42-3.27l0-.09a.67.67,0,0,0-.11-.82.65.65,0,0,0-.47-.2h-.13a2.67,2.67,0,0,1-2-.78,2.79,2.79,0,0,1-.78-2.32,2.66,2.66,0,0,1,1.33-2,.74.74,0,0,0,.39-.55.68.68,0,0,0-.18-.57.76.76,0,0,0-.17-.13l-.09,0a2.71,2.71,0,0,1-.65-.49,2.75,2.75,0,0,1-.56-2.95,2.65,2.65,0,0,1,2.46-1.67h.11a.64.64,0,0,0,.58-.36.67.67,0,0,0,0-.69l-.06-.08a2.7,2.7,0,0,1,3.61-3.79l.09,0a.64.64,0,0,0,.82-.12.65.65,0,0,0,.19-.5A2.67,2.67,0,0,1,60,191.13a3.36,3.36,0,0,1,.45.6,2.66,2.66,0,0,0,.16.22.69.69,0,0,0,.48.19.65.65,0,0,0,.59-.35l.05-.1a2.6,2.6,0,0,1,2.35-1.44A2.73,2.73,0,0,1,66,191a2.67,2.67,0,0,1,.76,1.85v.16a.65.65,0,0,0,.2.48.64.64,0,0,0,.83.1l.09,0a2.69,2.69,0,0,1,3.31.38,2.72,2.72,0,0,1,.43,3.26.73.73,0,0,0,.06.92.67.67,0,0,0,.48.2h.12a2.69,2.69,0,0,1,2,.77,2.82,2.82,0,0,1,.77,2.32,2.66,2.66,0,0,1-1.3,2l-.15.08a.65.65,0,0,0-.27.46.68.68,0,0,0,.19.58.48.48,0,0,0,.16.12,2.83,2.83,0,0,1,.74.54A2.73,2.73,0,0,1,74.94,208.13Z"/><path class="cls-4" d="M222.45,27.47a4.38,4.38,0,0,0,.74,3.13c2.13,3.28,16.91,13.54,21.86,11.06,2.5-1.24,8-9.65,11.7-17.71A7.78,7.78,0,0,0,257,18.9c-1.54,2.48-7.83,12.67-10.11,16.41-1.87,3.06-3.66,3.39-4.35,3.39h-.16c-6.42-.6-15.27-6.43-19.19-10.41C222.89,28,222.64,27.7,222.45,27.47Zm35.41,162.38c-7.66-11.1-17.18-14.65-22.94-14.16-.7,0-1.3,0-1.88.09s-1,.06-1.54.06c-3.26,0-6.73-1.47-14-8.82-3.65-3.7-13.67-10-17.38-13.77,2.73,3.63,10.3,13.45,13.32,16.84,4.9,5.49,9.63,10.42,15.74,12.24,4.17,1.24,6.64.36,10.83,1.52,4.85,1.35,7.61,4.67,11.08,8.36,3,3.19,7.43,8.69,10.08,12.19C260.8,202.2,260.9,194.25,257.86,189.85Zm-46.09-164c4-8.43,12.26-18,22.53-21.71-.75-.68-3.12-3-4.41-3-2.07,0-5.85.94-12.14,5.4-11.22,8-17.32,14.79-15.28,26.23.16.92,1.32,9.3-8.73,19.88-17.21,17.42-31.67,32.11-43.87,44.51l-.71.71-.71-.71-3.64-3.68c-18.82-19-37.46-37.91-40.65-41.21C93.79,41.51,93.44,35.84,94.05,30.05,96.29,8.53,80.37,3.27,78.55,2.75l-.31-.09A63.82,63.82,0,0,0,62.13,0C59,0,56.76,2.76,55.06,3.71,69.7,4.89,80.44,7.13,85.93,17.35,90.67,26.2,83.18,37,89.81,46.6S150.47,109,150.47,109l53.59-57.53C214.39,40.64,207.14,35.57,211.77,25.87ZM62.17,178.74h-.4A24.85,24.85,0,0,0,43.61,186a25.91,25.91,0,0,0-7.36,20.77c.67-4.1,2.84,6.65,3,2.51.81-18.85,21-26.14,33.54-25,1.46.13,25.26-27.73,28-34.85-4.62,4.67-23.39,21.32-26.61,24.53A16.77,16.77,0,0,1,62.17,178.74ZM42.41,35.36,51.13,41a20.37,20.37,0,0,0,10.41,3.39c2.08,0,4.82-2.59,8-8.72,1.72-3.29,5-9.9,4-13.5a4.75,4.75,0,0,0-.72-1.56c-.77,6.47-6.39,15.19-10.24,19.1A8.51,8.51,0,0,1,61,41.12l-.3.13a2.79,2.79,0,0,1-.65.07c-1.2,0-3.45-.53-7.42-3-7.44-4.69-7.44-4.69-14.32-9l-.41-.25-.43.23a2.41,2.41,0,0,0-.48.39,3.49,3.49,0,0,0-.57.77A24.49,24.49,0,0,0,42.41,35.36Z"/><path class="cls-2" d="M234.84,174.42c-.65,0-1.27.05-1.87.09-3.22.22-6,.41-14.76-8.35-20.59-20.6-42.63-42.59-61.45-61.37-24-24-48.23-48.14-51.89-51.88C94.8,42.6,94.46,37.24,95,31.78c2.34-22.15-14.59-27.55-16.22-28l-.33-.09C61.8-.82,55.31,1.22,52.8,3.72a4.42,4.42,0,0,0-1.34,2.4L51.29,7.3l1,.63s12.53,7.84,16.75,10.45c3,1.84,2.89,3.43,2.87,3.57-.57,6.18-6.17,14.76-10,18.58a8.38,8.38,0,0,1-1.43,1.21c-.32.09-2.27.39-7.34-2.77-7.45-4.63-7.45-4.63-14.34-8.84l-.9-.55-.93.5a3.2,3.2,0,0,0-.71.55c-1.66,1.66-3.34,6,4.07,16.62C48.44,58.81,55.43,65.08,67.24,63c.86-.16,8.68-1.24,18.75,8.47,33.29,33.29,61.66,61.56,77.91,77.74,26.66,26.54,34.7,34.56,37.86,38.32.18.21.4.46.68.76a21,21,0,0,1,6.19,16.3c-1.21,18.53,12.16,23.17,15,24l.3.08c12.19,3.29,20.06,3.25,23.41-.09a4.2,4.2,0,0,0,1.26-2.27l.17-1.18-1-.63s-11.35-7.1-15.17-9.47c-2.32-1.43-2.52-2.68-2.53-3a35.91,35.91,0,0,1,9.17-16.85,15.3,15.3,0,0,1,1.15-1.07c.38-.06,2.17-.12,6.41,2.52,6.75,4.19,6.75,4.19,13,8l.9.55.93-.5a2.84,2.84,0,0,0,.68-.53c1.54-1.54,3.12-5.58-3.67-15.28C250.7,177.41,240.77,173.94,234.84,174.42Zm20.83,16.5c3.51,5,4.35,8,4.36,9.49-4.59-2.81-5.21-3.19-11.26-7-6.89-4.28-9.63-3.1-10.45-2.42a18.56,18.56,0,0,0-1.65,1.5,39.92,39.92,0,0,0-10.2,18.84c-.06.37-.51,3.74,4.23,6.67l13.38,8.35c-1.72,1-6.51,2-19.11-1.34l-.3-.08c-3.16-.84-13.39-4.78-12.38-20.2a24.38,24.38,0,0,0-7.15-19l-.57-.63c-3.27-3.9-11.34-11.93-38.08-38.56-16.25-16.18-44.62-44.46-77.93-77.77C77.38,58,68.3,59,66.59,59.34,56.6,61.15,50.93,56,43.36,45.15c-4.21-6-5-9.42-4.88-10.94,5.37,3.28,5.93,3.63,12.75,7.87,7.14,4.44,10.14,3.52,11.21,2.77a11.56,11.56,0,0,0,2.09-1.73c4-4,10.36-13.47,11-20.68.07-.4.56-4-4.57-7.17-3.26-2-11.48-7.16-15-9.38,1.71-1.09,6.91-2.63,21.64,1.33l.24.07c1.81.5,15.6,4.93,13.57,24.11-.78,7.4.75,13.72,10.86,24.07,3.67,3.76,27.86,27.9,51.92,51.91C173,126.16,195,148.15,215.62,168.75c9.25,9.24,13,9.73,17.6,9.41.53,0,1.06-.07,1.77-.08C240.5,177.63,249,181.43,255.67,190.92Z"/><path class="cls-2" d="M258.13,198.68a27,27,0,0,0-3.86-7.13c-6.06-8.67-13.68-12.44-18.93-12.48C245,182.4,255.85,194.31,258.13,198.68Z"/><path class="cls-2" d="M213.64,205.19c-1.66,13.32,8.07,18,11.17,18.86l.54.15c9.37,2.51,14.2,2.44,16.61,2-7.53-1.54-24.43-3.3-25.89-15.69-1.52-12.9,10.16-24.15,16.91-31.37C229.55,181,215,194.14,213.64,205.19Z"/><path class="cls-2" d="M90.22,31.74C80.08,54.67,63.55,59.35,55.73,53.87,45.57,46.76,42.79,40.27,39.63,36c.42,1.74,2.24,5.27,4.48,8.65,7.22,10.88,14.68,15.93,25.47,12.94C79.21,54.9,89.17,41.22,90.22,31.74Z"/><path class="cls-2" d="M75.2,13.07A97.57,97.57,0,0,0,58.32,5.68c4,2.5,10.66,6.66,13.52,8.43C77,17.27,77,21,76.86,22c-.38,4.1-2.38,8.72-4.8,12.78A35.85,35.85,0,0,0,79,23.08,8.15,8.15,0,0,0,75.2,13.07Z"/><path class="cls-2" d="M83.92,52l-.08.09a5.86,5.86,0,0,0,0,8.29l39.35,39.35,30.88,30.89,4.53,4.53,9.54,9.53,42.73,42.73a5.86,5.86,0,0,0,8.29,0l.08-.08a6.16,6.16,0,0,0,.62-.75,5.81,5.81,0,0,1-6.24-1.27l-44.7-44.7-9.47-9.47-4.51-4.51L124.05,95.73,87.84,59.52a5.85,5.85,0,0,1,0-8.26l.09-.08a5.59,5.59,0,0,1,1-.81A5.84,5.84,0,0,0,83.92,52Z"/><path class="cls-2" d="M222.83,182s-26.69-28.31-60.61-62.23S94.81,54,94.81,54s31.87,33.49,65.79,67.41S222.83,182,222.83,182Z"/><path class="cls-2" d="M201.08,166.18c10.38,10.38,19.6,18,19.6,18s-7.6-9.21-18-19.59-19.59-18-19.59-18S190.71,155.81,201.08,166.18Z"/><path class="cls-2" d="M232.68,57.51C209.75,47.37,205.08,30.84,210.56,23c7.11-10.16,13.6-12.94,17.88-16.1-1.74.42-5.27,2.24-8.64,4.48-10.88,7.22-15.93,14.68-12.94,25.47C209.53,46.5,223.21,56.46,232.68,57.51Z"/><path class="cls-2" d="M251.36,42.49a99.23,99.23,0,0,0,7.39-16.88c-2.5,4-6.67,10.66-8.43,13.52-3.17,5.11-6.87,5.13-7.89,5-4.11-.38-8.72-2.38-12.78-4.8a35.75,35.75,0,0,0,11.7,6.89A8.13,8.13,0,0,0,251.36,42.49Z"/><path class="cls-2" d="M212.43,51.21l-.08-.08a5.87,5.87,0,0,0-8.3,0L164.7,90.48,139,116.18l-4.53,4.53-9.54,9.54L82.21,173a5.87,5.87,0,0,0,0,8.3l.08.08A5.49,5.49,0,0,0,83,182a5.81,5.81,0,0,1,1.27-6.24L129,131l9.47-9.47,4.51-4.51L168.7,91.34l36.21-36.21a5.84,5.84,0,0,1,8.26.06l.08.08a6,6,0,0,1,.81,1A5.83,5.83,0,0,0,212.43,51.21Z"/><path class="cls-2" d="M148.22,122.71c-33.92,33.92-60.61,62.23-60.61,62.23s28.3-26.69,62.23-60.61S210.45,62.1,210.45,62.1,182.14,88.79,148.22,122.71Z"/><path class="cls-2" d="M103.43,163.19c-10.38,10.38-18,19.6-18,19.6s9.22-7.6,19.6-18,18-19.59,18-19.59S113.8,152.82,103.43,163.19Z"/><path class="cls-2" d="M92.23,191.54c17.24-17.25,45.37-45.39,58.9-58.95l13.69-13.72c24-24.05,43-43.05,46.7-46.71,10.3-10.07,15.66-10.41,21.13-9.83,22.14,2.34,27.54-14.59,28-16.22l.09-.33c4.5-16.69,2.46-23.18-.05-25.69a4.38,4.38,0,0,0-2.39-1.34l-1.18-.17-.64,1S248.66,32.12,246,36.34c-1.83,3-3.43,2.89-3.56,2.88-6.18-.58-14.77-6.18-18.58-10a8.38,8.38,0,0,1-1.21-1.43c-.09-.32-.39-2.27,2.77-7.34C230.08,13,230.08,13,234.3,6.12l.55-.9-.5-.93a3.2,3.2,0,0,0-.55-.71c-1.66-1.66-6-3.34-16.63,4.07-11.55,8.08-17.82,15.07-15.69,26.88.15.86,1.23,8.68-8.47,18.75-25.22,25.23-44.58,44.64-59.53,59.65l-13,13.08c-16.81,16.88-36.72,36.83-47,47a16,16,0,0,1-11.65,4.44A26.11,26.11,0,0,0,42.9,184.9a26.26,26.26,0,1,0,37,37.3,26.13,26.13,0,0,0,7.66-18.77A16.51,16.51,0,0,1,92.23,191.54ZM75.7,221.05a22.59,22.59,0,0,1-30.37-33.39,22.4,22.4,0,0,1,12.84-6.36,26.4,26.4,0,0,1,13.34,3.12c5.31,3,9.75,7.49,11.59,13.37-.42-6.79-5.09-12.62-11-15.67a20.25,20.25,0,0,0-4.4-1.64,18.08,18.08,0,0,0,8.15-4.69c11-11,33.15-33,47.23-47.19l12.89-12.94c15-15,34.37-34.49,59.7-59.81,10.76-11.18,9.76-20.26,9.46-22-1.81-10,3.36-15.66,14.18-23.23,6-4.21,9.42-5,10.95-4.88-3.29,5.37-3.63,5.93-7.88,12.76-4.43,7.13-3.52,10.13-2.77,11.2a12.13,12.13,0,0,0,1.74,2.09c4.05,4,13.47,10.36,20.67,11,.4.07,4,.56,7.18-4.57,2-3.26,7.15-11.48,9.38-15,1.08,1.71,2.62,6.91-1.34,21.64l-.06.24c-.5,1.81-4.93,15.6-24.11,13.57-7.41-.78-13.72.75-24.07,10.86-3.76,3.68-22.72,22.68-46.73,46.74l-13.55,13.58c-11.94,12-45.25,45.3-59.5,59.58a17.54,17.54,0,0,0-5.34,13.13A22.49,22.49,0,0,1,75.7,221.05Z"/><path class="cls-2" d="M47.74,218.36a17.55,17.55,0,0,0,14,6.7c6.11-.19,11.07-3.4,14.39-8.39-4.39,3.72-9.29,6.07-15.15,6.12A23.22,23.22,0,0,1,47.74,218.36Z"/><path class="cls-5" d="M299.75,109.86l-42.16-3.58,1.23-13L257.7,93c-36.77-9.37-72.45-14.13-106-14.13h-1.34c-33.6,0-69.27,4.76-106,14.13l-1.13.29,1.24,13L2.23,109.86,23.82,137,6.94,166l63.22-5.37L69,147.26l1.15-.09c29.39-2.46,55.5-3.65,79.8-3.65h2c24.31,0,50.41,1.19,79.81,3.65l1.14.09-1.13,13.32L295,166,278.16,137Z"/><path class="cls-2" d="M116.19,81.12l.77-.83c-.44-.39-12-10.33-12-10.33Z"/><path class="cls-2" d="M119.35,80.93l.78-.82c-.28-.25-7.72-6.6-7.72-6.6Z"/><path class="cls-2" d="M122.35,80.43l.74-.86L110.06,69S121.89,80,122.35,80.43Z"/><path class="cls-2" d="M129.43,79.27l.75-.85c-.22-.18-6.15-4.64-6.15-4.64Z"/><path class="cls-2" d="M106,81.81l.84-.76c-.18-.18-5.15-4.86-5.15-4.86Z"/><path class="cls-2" d="M169.31,79.33l.77.83,8.43-8.54S169.64,79,169.31,79.33Z"/><path class="cls-2" d="M179.49,79.37l.76.84,12.21-11.78S180,79,179.49,79.37Z"/><path class="cls-2" d="M182.51,79.58l.76.84,5.65-5.91Z"/><path class="cls-2" d="M185.85,80.16l.79.82,8.36-8.8Z"/><path class="cls-2" d="M193.56,80.88l.79.81c.19-.2,5-5.66,5-5.66Z"/><path class="cls-2" d="M168.9,142.46l-.82.78,10.69,10.58Z"/><path class="cls-2" d="M178.93,142.88l-.76.83c.6.54,16.41,14.37,16.41,14.37S179.52,143.43,178.93,142.88Z"/><path class="cls-2" d="M182.36,143.39l-.78.83,7.33,6Z"/><path class="cls-2" d="M195.26,145.13l.46-.5h-.05s.1,0,.11,0,0-.16-.08-.08l-.28.36,8.16,6.63-7.41-7.46.09.1a.65.65,0,0,0-.77-.23.75.75,0,0,0-.31.23.67.67,0,0,0-.12.27.61.61,0,0,0,0,.15.75.75,0,0,0,.05.26c.09.17.17.22.15.2Z"/><path class="cls-2" d="M105.06,145.57l-.76-.85L98,151.16Z"/><path class="cls-2" d="M116.05,144.29l-.84-.76c-.32.37-8.6,10.24-8.6,10.24S115.71,144.65,116.05,144.29Z"/><path class="cls-2" d="M119.65,144.28l-.77-.83-7,7.21S119.37,144.52,119.65,144.28Z"/><path class="cls-2" d="M132.55,143.93l-.78-.82-13.15,13.37S132.05,144.4,132.55,143.93Z"/><path class="cls-2" d="M302,108.9l-43.13-3.67c.4-4.28.81-8.56,1.22-12.81L258,91.89c-35.18-9-71.28-14.23-107-14.16S79.17,82.92,44,91.89l-2.08.53c.4,4.25.81,8.53,1.22,12.81L0,108.9l22.43,28.22L4.83,167.28l66.57-5.65-1.13-13.32c26.84-2.24,53.89-3.68,80.72-3.65s53.88,1.41,80.71,3.65l-1.13,13.32,66.57,5.65-17.6-30.16ZM27.5,136.75,8.16,112.42l35.37-3c.06.55.11,1.1.16,1.64L32,113.13,43.87,113l.09.92c-1.75.5-5.18,1.51-5.18,1.51l5.34.21c.31,3.19.61,6.4.91,9.61l-3.11,1.19,3.27.48c.07.71.13,1.42.2,2.12l-6.61,1.34,6.78.43.18,2-11.6,1.94,11.77-.17c.16,1.71.33,3.44.49,5.16l-5.8,1.21,5.93.17.24,2.61-13.33,2.06,13.49-.33c.16,1.65.32,3.3.47,4.95l1.26.59-8.75,1.15,11.82.29,3.2,1.5-21.49,2.23,24.67-.74,5.68,2.65-51.26,4.36Zm23.68,9q-2.37-25.38-4.71-50.17c34.4-8.23,69.65-13.05,104.52-13s70.11,4.76,104.52,13q-2.34,24.78-4.71,50.17c-33-3.55-66.61-5.91-99.81-5.87S84.22,142.16,51.18,145.71Zm192.64,9.72,24,.72L246.92,154l1-.49,12.7-.31L251.25,152l3.12-1.46,12.18.3L254.71,149l.33-3.5,12.78.31-12.63-2c.18-1.93.37-3.87.55-5.79l4.92-.14-4.81-1,.21-2.3,11.06.16-10.9-1.83c.07-.72.13-1.43.2-2.15l6.07-.39-5.92-1.2c.07-.7.13-1.4.2-2.11l9.23.27-9.06-2c.3-3.23.61-6.45.91-9.67l7.17-.2L258,114l.09-1,11.21.14-11-2c.06-.58.11-1.17.17-1.76l35.37,3-19.34,24.33,15,25.67-51.25-4.36Z"/><path class="cls-4" d="M55.77,117.82a22,22,0,0,1,.23-5.53,11.81,11.81,0,0,1,1.41-3.91,7.87,7.87,0,0,1,2.36-2.5,9.65,9.65,0,0,1,3.14-1.32,11.54,11.54,0,0,1,3.59-.27c.1,1.73.21,3.47.31,5.21a6,6,0,0,0-1.47-.13,9,9,0,0,0-1.45.19,5.91,5.91,0,0,0-1.4.47,2.77,2.77,0,0,0-1.11,1,5.49,5.49,0,0,0-.67,1.94,13.22,13.22,0,0,0-.1,3.2l.3,4.72a12.79,12.79,0,0,0,.51,3.1,4.4,4.4,0,0,0,.94,1.65,2,2,0,0,0,1.22.64,5.48,5.48,0,0,0,1.4,0A12.16,12.16,0,0,0,66.6,126a7.9,7.9,0,0,0,1.29-.5c.1,1.71.2,3.42.31,5.14a12.31,12.31,0,0,1-1.77.6,13.29,13.29,0,0,1-1.78.33,8.45,8.45,0,0,1-3.2-.21,5.76,5.76,0,0,1-2.63-1.6,9.1,9.1,0,0,1-1.88-3.29,20.42,20.42,0,0,1-.95-5.31C55.92,120,55.84,118.93,55.77,117.82Z"/><path class="cls-4" d="M76.69,130.49a6.32,6.32,0,0,1-3-.38,5.51,5.51,0,0,1-2.39-1.91,11.14,11.14,0,0,1-1.68-3.66,27.7,27.7,0,0,1-.85-5.68c-.06-1.09-.13-2.17-.19-3.26a28.53,28.53,0,0,1,.18-5.85A13.51,13.51,0,0,1,70,105.62,7.3,7.3,0,0,1,72.18,103a7.48,7.48,0,0,1,2.93-1.27,6.18,6.18,0,0,1,3,.11,4.84,4.84,0,0,1,2.4,1.82,11.18,11.18,0,0,1,1.66,3.76,29.91,29.91,0,0,1,.81,6c.06,1.14.12,2.29.17,3.43a31.58,31.58,0,0,1-.19,6.1,13.24,13.24,0,0,1-1.22,4.16,6.24,6.24,0,0,1-2.14,2.45A6.7,6.7,0,0,1,76.69,130.49Zm-1.26-23.56a1.94,1.94,0,0,0-1.22.7,3.61,3.61,0,0,0-.64,1.53,12.86,12.86,0,0,0-.23,2.38q0,1.41.09,3.3l.18,3.2c.07,1.26.16,2.35.28,3.28a11.49,11.49,0,0,0,.49,2.27,2.92,2.92,0,0,0,.78,1.31,1.51,1.51,0,0,0,1.21.34,1.78,1.78,0,0,0,1.21-.63,3.48,3.48,0,0,0,.64-1.5,11.45,11.45,0,0,0,.21-2.39c0-1,0-2.07-.09-3.35-.06-1.09-.12-2.17-.17-3.26a26.41,26.41,0,0,0-.75-5.64C77.06,107.27,76.39,106.76,75.43,106.93Z"/><path class="cls-4" d="M86.38,129q-.69-14.25-1.37-28.48c2.11-.36,4.24-.7,6.36-1a6.52,6.52,0,0,1,3.07.21,4.82,4.82,0,0,1,2.44,1.89,11.6,11.6,0,0,1,1.69,3.91,29.33,29.33,0,0,1,.78,6.19l.12,3a31,31,0,0,1-.31,6.31,13.38,13.38,0,0,1-1.37,4.23,6.18,6.18,0,0,1-2.22,2.4,6.87,6.87,0,0,1-2.93.88C90.56,128.63,88.47,128.8,86.38,129Zm4.29-6,1.16-.11a3.25,3.25,0,0,0,1.29-.39,2.32,2.32,0,0,0,.92-1.11,7.41,7.41,0,0,0,.52-2.18,25.17,25.17,0,0,0,.06-3.6c-.05-1.26-.11-2.51-.16-3.77a25.32,25.32,0,0,0-.35-3.53,6.66,6.66,0,0,0-.68-2.07,2,2,0,0,0-1-.92,2.89,2.89,0,0,0-1.33-.1l-1.23.18Q90.28,114.17,90.67,123Z"/><path class="cls-4" d="M101.46,98.07q5.58-.7,11.18-1.25c0,1.93.11,3.87.16,5.81q-3.27.28-6.54.63.09,3,.2,6.06c2-.18,4-.36,5.92-.52.06,1.94.11,3.87.17,5.81-2,.14-3.93.29-5.9.46.08,2.21.15,4.42.23,6.64q3.34-.24,6.69-.44c.06,1.94.11,3.87.17,5.81q-5.59.28-11.19.66Q102,112.91,101.46,98.07Z"/><path class="cls-4" d="M118,96.33c1.57-.14,3.15-.26,4.73-.38q.93,9.57,1.84,19.17.92-9.6,1.84-19.23c1.27-.08,2.54-.16,3.82-.22q1.26,9.6,2.5,19.25.54-9.8,1.11-19.62c1.54-.07,3.09-.13,4.63-.18q-1.62,15.61-3.17,31.17l-4.47.11q-1.12-8.91-2.29-17.8-.95,9-1.87,17.93l-4.55.17Q120.08,111.45,118,96.33Z"/><path class="cls-4" d="M147.24,126.78a5.76,5.76,0,0,1-3-.75,6.3,6.3,0,0,1-2.3-2.45,14.93,14.93,0,0,1-1.49-4.41,36.17,36.17,0,0,1-.57-6.64c0-1.26,0-2.52,0-3.78a35.62,35.62,0,0,1,.48-6.66,15,15,0,0,1,1.46-4.48,6.47,6.47,0,0,1,2.31-2.52,6.24,6.24,0,0,1,6.06-.07,6.2,6.2,0,0,1,2.31,2.48A14.86,14.86,0,0,1,154,102a36.28,36.28,0,0,1,.5,6.67c0,1.26,0,2.52,0,3.79a37,37,0,0,1-.51,6.66,14.46,14.46,0,0,1-1.44,4.44,6.28,6.28,0,0,1-2.26,2.49A6,6,0,0,1,147.24,126.78Zm-.06-26.62a1.59,1.59,0,0,0-1.25.56,3.67,3.67,0,0,0-.73,1.6,15.12,15.12,0,0,0-.34,2.64c-.07,1.06-.09,2.31-.09,3.75,0,1.21,0,2.43,0,3.64,0,1.44.05,2.68.12,3.74a15.78,15.78,0,0,0,.37,2.64,4,4,0,0,0,.72,1.58,1.47,1.47,0,0,0,1.19.53,1.56,1.56,0,0,0,1.24-.55,3.8,3.8,0,0,0,.72-1.59,15.11,15.11,0,0,0,.34-2.65c0-1.06.08-2.3.08-3.74,0-1.22,0-2.43,0-3.65a33.22,33.22,0,0,0-.46-6.41C148.8,100.85,148.16,100.15,147.18,100.16Z"/><path class="cls-4" d="M157.13,94.94c2.33,0,4.67.08,7,.15,3.9.13,5.81,3.32,5.72,9.48a17.42,17.42,0,0,1-.53,4.33,6.23,6.23,0,0,1-1.6,2.9,5.07,5.07,0,0,1,1.14,2.41,14.35,14.35,0,0,1,.3,3.31c0,2.93-.07,5.86-.11,8.79l-4.47-.09c0-2.76,0-5.53.08-8.3a9.5,9.5,0,0,0-.22-2.24,1.13,1.13,0,0,0-1.12-1l-1.77,0c0,3.85-.05,7.69-.08,11.54l-4.47-.05Q157.06,110.53,157.13,94.94Zm6.38,14.18c.46,0,.83-.27,1.1-.86a8.31,8.31,0,0,0,.43-3.11,8.64,8.64,0,0,0-.38-3.27,1.31,1.31,0,0,0-1.16-.92l-1.84,0c0,2.72,0,5.45-.07,8.17Z"/><path class="cls-4" d="M176.83,95.69l-.21,11.56q2.52-5.66,5.07-11.22c1.69.13,3.39.27,5.08.42q-3.3,6.89-6.55,14,3,8.3,6,16.51l-5.15-.22q-2.26-6.31-4.57-12.7-.12,6.27-.23,12.53l-4.36-.13.48-30.95C173.86,95.51,175.35,95.6,176.83,95.69Z"/><path class="cls-4" d="M194.39,118.72a3.47,3.47,0,0,0-.09-1.07,2.74,2.74,0,0,0-.4-.85,4.39,4.39,0,0,0-.77-.8c-.33-.27-.73-.58-1.22-1l-1.56-1.21a7,7,0,0,1-1.3-1.2,7.22,7.22,0,0,1-1-1.74,10.74,10.74,0,0,1-.67-2.5,18.61,18.61,0,0,1-.18-3.51,13.05,13.05,0,0,1,.59-3.79,7,7,0,0,1,1.47-2.61,5.11,5.11,0,0,1,2.22-1.42,6.66,6.66,0,0,1,2.85-.25,15.29,15.29,0,0,1,2.44.45c.76.21,1.49.44,2.17.7q-.09,2.91-.2,5.82c-.66-.25-1.31-.47-1.93-.66a12.31,12.31,0,0,0-2.15-.4,3.46,3.46,0,0,0-2.06.33c-.53.3-.8.94-.83,1.94a3.58,3.58,0,0,0,.17,1.33,3.19,3.19,0,0,0,.59,1,8.49,8.49,0,0,0,.91.87c.34.29.73.6,1.16.94l1.67,1.37a7.77,7.77,0,0,1,2.31,3.11,11.72,11.72,0,0,1,.7,5c-.23,6.25-2.82,9.2-7.79,9a14.55,14.55,0,0,1-2.7-.37c-.75-.19-1.48-.4-2.19-.65l.15-6c.34.11.67.23,1,.35a6.69,6.69,0,0,0,1,.31c.34.08.7.16,1.08.23s.83.11,1.32.14a3.4,3.4,0,0,0,2.48-.56A3,3,0,0,0,194.39,118.72Z"/><path class="cls-4" d="M202.45,98.14c1.61.21,3.23.42,4.83.65-.14,3.63-.29,7.27-.44,10.9l4.19.5.48-10.78c1.61.24,3.23.49,4.84.76q-.67,14.33-1.34,28.64l-4.77-.39q.27-6,.53-12l-4.18-.44q-.26,6.09-.5,12.17l-4.74-.33Q201.91,113,202.45,98.14Z"/><path class="cls-4" d="M224.73,130.3a6.54,6.54,0,0,1-2.92-1,6.32,6.32,0,0,1-2.16-2.46,13,13,0,0,1-1.25-4.18,31.68,31.68,0,0,1-.22-6.13c.06-1.15.11-2.3.17-3.46a29.45,29.45,0,0,1,.82-6,11.26,11.26,0,0,1,1.69-3.79,4.9,4.9,0,0,1,2.41-1.84,6.06,6.06,0,0,1,3-.14,7.42,7.42,0,0,1,3,1.27,7.2,7.2,0,0,1,2.16,2.63,13.58,13.58,0,0,1,1.23,4.15,28.9,28.9,0,0,1,.17,5.88c-.06,1.1-.13,2.19-.19,3.29a28.38,28.38,0,0,1-.83,5.73,11.27,11.27,0,0,1-1.65,3.7,5.5,5.5,0,0,1-2.38,1.93A6.48,6.48,0,0,1,224.73,130.3Zm1.3-23.71a1.51,1.51,0,0,0-1.27.27,2.79,2.79,0,0,0-.8,1.3,12.48,12.48,0,0,0-.48,2.31c-.11.94-.2,2.06-.27,3.35-.06,1.09-.11,2.18-.17,3.27-.07,1.29-.09,2.42-.08,3.38a14,14,0,0,0,.23,2.41,3.61,3.61,0,0,0,.63,1.5A1.7,1.7,0,0,0,225,125a1.53,1.53,0,0,0,1.25-.34,3,3,0,0,0,.8-1.32,11.71,11.71,0,0,0,.47-2.29c.1-.93.19-2,.26-3.3l.18-3.22a27,27,0,0,0-.13-5.74C227.59,107.49,227,106.76,226,106.59Z"/><path class="cls-4" d="M236.08,103.91c2.21.47,4.42,1,6.62,1.48a5.89,5.89,0,0,1,4.15,3.18,13,13,0,0,1,1,6.62,11.34,11.34,0,0,1-1.8,6,4.16,4.16,0,0,1-4.3,1.65l-2.11-.33q-.28,4.38-.55,8.76l-4.56-.52Q235.27,117.32,236.08,103.91Zm5.06,13.83a1.2,1.2,0,0,0,1.32-.59,6.3,6.3,0,0,0,.61-2.81,8,8,0,0,0-.21-3.07,1.6,1.6,0,0,0-1.15-1.09l-1.34-.28q-.23,3.81-.47,7.62Z"/></g></g></svg>